<svg width="971" height="286" viewBox="0 0 971 286" fill="none" xmlns="http://www.w3.org/2000/svg">
<path fill-rule="evenodd" clip-rule="evenodd" d="M264.744 191.947C266.387 213.214 266.387 223.183 266.387 234.065H217.558C217.558 231.694 217.6 229.526 217.642 227.327C217.774 220.492 217.912 213.365 216.813 198.971C215.361 177.899 206.356 173.216 189.798 173.216H175.128H113V134.876H192.122C213.037 134.876 223.494 128.464 223.494 111.489C223.494 96.563 213.037 87.517 192.122 87.517H113V50H200.836C248.186 50 271.716 72.536 271.716 108.535C271.716 135.461 255.158 153.021 232.79 155.948C251.672 159.753 262.71 170.582 264.744 191.947Z" fill="black"/>
<path d="M113 234.065V205.483H164.63C173.254 205.483 175.126 211.929 175.126 215.772V234.065H113Z" fill="black"/>
<path d="M853.943 105.524H805.548L783.523 136.474L762.079 105.524H710.206L756.862 169.467L706.148 235.745H754.544L780.336 200.416L806.127 235.745H858L806.996 167.423L853.943 105.524Z" fill="black"/>
<path d="M549.111 127.105C543.604 111.922 531.723 101.411 508.829 101.411C489.413 101.411 475.503 110.171 468.548 124.477V104.915H421.602V235.135H468.548V171.193C468.548 151.631 474.054 138.784 489.413 138.784C503.613 138.784 507.091 148.127 507.091 165.938V235.135H554.037V171.193C554.037 151.631 559.253 138.784 574.902 138.784C589.102 138.784 592.29 148.127 592.29 165.938V235.135H639.236V153.383C639.236 126.229 628.804 101.411 593.159 101.411C571.425 101.411 556.066 112.506 549.111 127.105Z" fill="black"/>
<path d="M372.716 184.599C368.369 194.818 360.255 199.197 347.504 199.197C333.304 199.197 321.712 191.606 320.553 175.547H411.258V162.409C411.258 127.08 388.365 97.298 345.185 97.298C304.904 97.298 274.766 126.788 274.766 167.956C274.766 209.416 304.325 234.526 345.765 234.526C379.961 234.526 403.724 217.884 410.389 188.102L372.716 184.599ZM321.133 152.773C322.871 140.51 329.537 131.167 344.606 131.167C358.516 131.167 366.05 141.094 366.63 152.773H321.133Z" fill="black"/>
<path d="M654.592 105.78V236H701.538V105.78H654.592ZM654.302 93.517H701.828V52.056H654.302V93.517Z" fill="black"/>
</svg>
